<svg xmlns="http://www.w3.org/2000/svg" width="951.662" height="568.963" viewBox="0 0 951.662 568.963"><g transform="translate(-20.993)"><rect width="40.998" height="40.998" transform="translate(829.609 511.443)" fill="rgba(89,106,137,0.19)" opacity="0.99"/><rect width="17.885" height="17.885" transform="translate(20.993 185.071)" fill="rgba(89,106,137,0.19)" opacity="0.583"/><rect width="36.54" height="36.54" transform="translate(844.945 251.662)" fill="rgba(89,106,137,0.19)" opacity="0.456"/><rect width="20.536" height="20.536" transform="translate(826.304 93.149)" fill="rgba(89,106,137,0.19)" opacity="0.684"/><rect width="15.206" height="15.206" transform="translate(923.168 82.503)" fill="rgba(89,106,137,0.19)" opacity="0.475"/><rect width="31.474" height="31.474" transform="translate(732.827 537.49)" fill="rgba(89,106,137,0.19)" opacity="0.391"/><rect width="35.948" height="35.948" transform="translate(659.779 451.119)" fill="rgba(89,106,137,0.19)" opacity="0.689"/><rect width="30.168" height="30.168" transform="translate(745.465 311.954)" fill="rgba(89,106,137,0.19)" opacity="0.671"/><rect width="52.115" height="52.115" transform="translate(745.627 206.444)" fill="rgba(89,106,137,0.19)" opacity="0.579"/><rect width="16.077" height="16.077" transform="translate(777.977 114.277)" fill="rgba(89,106,137,0.19)" opacity="0.899"/><rect width="20.331" height="20.331" transform="translate(764.657)" fill="rgba(89,106,137,0.19)" opacity="0.404"/><rect width="19.425" height="19.425" transform="translate(513.711 489.957)" fill="rgba(89,106,137,0.19)" opacity="0.776"/><rect width="22.158" height="22.158" transform="translate(604.662 378.157)" fill="rgba(89,106,137,0.19)" opacity="0.994"/><rect width="15.217" height="15.217" transform="translate(504.91 345.823)" fill="rgba(89,106,137,0.19)" opacity="0.895"/><rect width="17.286" height="17.286" transform="translate(606.453 193.734)" fill="rgba(89,106,137,0.19)" opacity="0.583"/><rect width="43.789" height="43.789" transform="translate(631.541 122.856)" fill="rgba(89,106,137,0.19)" opacity="0.562"/><rect width="13.814" height="13.814" transform="translate(606.173 46.654)" fill="rgba(89,106,137,0.19)" opacity="0.225"/><rect width="24.543" height="24.543" transform="translate(361.286 522.256)" fill="rgba(89,106,137,0.19)" opacity="0.15"/><rect width="42.463" height="42.463" transform="translate(461.574 454.803)" fill="rgba(89,106,137,0.19)" opacity="0.946"/><rect width="29.735" height="29.735" transform="translate(353.907 329.931)" fill="rgba(89,106,137,0.19)" opacity="0.787"/><rect width="33.105" height="33.105" transform="translate(479.687 208.747)" fill="rgba(89,106,137,0.19)" opacity="0.716"/><rect width="41.164" height="41.164" transform="translate(330.96 175.444)" fill="rgba(89,106,137,0.19)" opacity="0.784"/><rect width="51.855" height="51.855" transform="translate(452.192 51.564)" fill="rgba(89,106,137,0.19)" opacity="0.518"/><rect width="17.612" height="17.612" transform="translate(211.645 421.672)" fill="rgba(89,106,137,0.19)" opacity="0.33"/><rect width="13.544" height="13.544" transform="translate(237.29 293.243)" fill="rgba(89,106,137,0.19)" opacity="0.309"/><rect width="26.908" height="26.908" transform="translate(294.435 226.421)" fill="rgba(89,106,137,0.19)" opacity="0.38"/><rect width="23.101" height="23.101" transform="translate(314.913 135.712)" fill="rgba(89,106,137,0.19)" opacity="0.613"/><rect width="36.977" height="36.977" transform="translate(251.492 39.012)" fill="rgba(89,106,137,0.19)" opacity="0.642"/><rect width="14.638" height="14.638" transform="translate(156.137 327.013)" fill="rgba(89,106,137,0.19)" opacity="0.917"/><rect width="46.125" height="46.125" transform="translate(142.193 208.164)" fill="rgba(89,106,137,0.19)" opacity="0.744"/><rect width="19.119" height="19.119" transform="translate(106.717 142.773)" fill="rgba(89,106,137,0.19)" opacity="0.272"/><rect width="39.763" height="39.763" transform="translate(127.617 69.298)" fill="rgba(89,106,137,0.19)" opacity="0.506"/><rect width="49.251" height="49.251" transform="translate(923.405 341.257)" fill="rgba(89,106,137,0.19)" opacity="0.528"/></g></svg>