<svg xmlns="http://www.w3.org/2000/svg" fill="#474D57" width="48.001" height="48" viewBox="0 0 48.001 48"><path d="M-26-307H-64a5.006,5.006,0,0,1-5-5v-38a5.006,5.006,0,0,1,5-5h38a5.006,5.006,0,0,1,5,5v38A5.006,5.006,0,0,1-26-307Zm-18.257-16h0l7.358,5.422a2.487,2.487,0,0,0,1.183.37c.74,0,1.238-.545,1.481-1.62L-29.4-341.6a2.263,2.263,0,0,0-.263-1.976,1.285,1.285,0,0,0-1.039-.467,2.1,2.1,0,0,0-.734.143L-59.829-332.96c-.96.375-1.5.865-1.484,1.343.014.406.436.768,1.156.992l7.258,2.272,16.859-10.615a1.507,1.507,0,0,1,.789-.279c.175,0,.3.058.339.156s-.031.259-.206.416l-13.637,12.323-.528,7.493a1.858,1.858,0,0,0,1.479-.722L-44.257-323Z" transform="translate(69 355)"/></svg>