<?xml version="1.0" encoding="utf-8"?>
<!-- Generator: Adobe Illustrator 16.2.0, SVG Export Plug-In . SVG Version: 6.00 Build 0)  -->
<!DOCTYPE svg PUBLIC "-//W3C//DTD SVG 1.0//EN" "http://www.w3.org/TR/2001/REC-SVG-20010904/DTD/svg10.dtd">
<svg version="1.0" id="Livello_1" xmlns="http://www.w3.org/2000/svg" xmlns:xlink="http://www.w3.org/1999/xlink" x="0px" y="0px"
	 width="313.15px" height="232.695px" viewBox="0 0 313.15 232.695" enable-background="new 0 0 313.15 232.695"
	 xml:space="preserve">
<g>
	<g>
		<path fill-rule="evenodd" clip-rule="evenodd" fill="#F18908" d="M269.338,5.707c-3.235,4.635-5.243,9.792-6.023,15.468
			c-13.931-2.838-30.31-2.262-49.137,1.729c-19.248,4.115-38.855,11.34-58.822,21.677c20.364-12.245,40.672-21.782,60.923-28.611
			C236.035,9.376,253.721,5.955,269.338,5.707z M21.61,169.831c-1.81,10.411-0.452,19.34,4.072,26.79
			c8.49,13.906,25.228,20.407,50.215,19.502c24.875-0.892,51.782-8.806,80.723-23.741c-32.919,19.682-63.954,31.561-93.105,35.639
			c-29.175,3.954-48.009-1.084-56.499-15.114c-5.305-8.701-5.355-19.893-0.148-33.576c5.081-13.101,14.519-27.001,28.314-41.7
			C27.844,149.045,23.321,159.779,21.61,169.831z"/>
		<path fill-rule="evenodd" clip-rule="evenodd" fill="#15609E" d="M307.227,53.208v129.358c0,0.793-0.285,1.487-0.855,2.082
			c-0.62,0.533-1.339,0.799-2.156,0.799h-20.209c-0.818,0-1.512-0.267-2.082-0.799h-0.038c-0.57-0.595-0.855-1.289-0.855-2.082
			V53.208c0-0.768,0.285-1.425,0.855-1.97l0.038-0.038c0.57-0.558,1.264-0.836,2.082-0.836h20.209c0.817,0,1.536,0.279,2.156,0.836
			v0.038C306.942,51.783,307.227,52.439,307.227,53.208z M212.839,49.229c14.229,0,25.854,4.003,34.877,12.01
			c8.899,7.982,14.396,18.182,16.49,30.601v0.037c0.074,0.533-0.006,1.06-0.241,1.58c-0.211,0.484-0.571,0.892-1.079,1.227v0.093
			c-0.496,0.272-1.047,0.41-1.655,0.41h-20.357c-0.719,0-1.338-0.192-1.859-0.577v-0.037c-0.571-0.409-0.93-0.948-1.078-1.618
			c-1.574-6.432-4.524-11.452-8.85-15.059c-4.251-3.483-9.667-5.224-16.249-5.224c-7.04-0.025-12.859,2.33-17.457,7.065
			c0,0.061-0.013,0.093-0.038,0.093c-2.838,3.062-4.722,6.897-5.651,11.508c0,0.025-0.013,0.074-0.039,0.149
			c-1.003,4.92-1.505,13.726-1.505,26.418c0,12.79,0.515,21.684,1.544,26.678c0.929,4.611,2.825,8.478,5.688,11.601
			c0.049,0,0.074,0.012,0.074,0.037c4.4,4.61,10.194,6.916,17.383,6.916c8.056,0.024,14.532-2.684,19.428-8.125
			c0-0.024,0.025-0.038,0.074-0.038c3.966-4.61,5.95-10.739,5.95-18.386v-4.388h-25.451c-0.83,0-1.531-0.26-2.101-0.781h-0.038
			c-0.558-0.62-0.837-1.326-0.837-2.119v-16.695c0-0.818,0.279-1.5,0.837-2.045l0.038-0.037c0.57-0.57,1.271-0.855,2.101-0.855
			h48.616c0.831,0,1.537,0.285,2.119,0.855v0.037c0.57,0.545,0.856,1.227,0.856,2.045v19.781c0,17.042-4.251,29.901-12.754,38.577
			c-10.212,10.349-23.158,15.542-38.836,15.58c-14.712-0.037-27.063-4.921-37.053-14.65c-2.751-2.627-5.025-5.589-6.823-8.886
			c-0.025-0.025-0.068-0.062-0.13-0.111c-1.673-3.137-3-5.931-3.979-8.385v-0.037c-1.054-2.751-1.76-6.495-2.119-11.229
			c-0.385-4.437-0.602-8.198-0.651-11.284c-0.075-1.884-0.112-6.569-0.112-14.055c0-7.523,0.038-12.196,0.112-14.018
			c0.049-3.086,0.266-6.848,0.651-11.285c0.359-4.784,1.065-8.551,2.119-11.303v-0.056c0.93-2.343,2.256-5.131,3.979-8.366
			c0.062-0.025,0.105-0.05,0.13-0.074c1.797-3.297,4.071-6.259,6.823-8.887C185.776,54.149,198.127,49.254,212.839,49.229z
			 M50.817,51.237l0.037-0.038c0.57-0.558,1.264-0.836,2.082-0.836h51.647c13.311,0,24.007,3.768,32.088,11.303
			c8.081,7.548,12.122,17.321,12.122,29.319c0,9.63-2.665,17.673-7.994,24.131c-4.586,5.516-10.324,9.494-17.216,11.936
			l29.04,54.193h0.037c0.31,0.571,0.385,1.215,0.223,1.934c-0.124,0.645-0.458,1.195-1.004,1.654
			c-0.557,0.409-1.196,0.613-1.915,0.613H126.39c-0.558,0-1.072-0.124-1.543-0.372c-0.508-0.309-0.893-0.725-1.153-1.245
			l-27.162-52.874H76.12v51.609c0,0.793-0.285,1.487-0.855,2.082c-0.595,0.533-1.301,0.799-2.119,0.799H52.936
			c-0.818,0-1.512-0.267-2.082-0.799h-0.037c-0.57-0.595-0.855-1.289-0.855-2.082V53.208C49.961,52.439,50.247,51.783,50.817,51.237
			z M117.522,78.51c-3.656-3.198-8.472-4.797-14.445-4.797H76.12v34.729h26.957c5.937,0,10.733-1.506,14.39-4.519l0.056-0.037
			c3.42-3.086,5.131-7.325,5.131-12.716c0-5.354-1.711-9.587-5.131-12.698V78.51z"/>
	</g>
	<g>
		<path fill-rule="evenodd" clip-rule="evenodd" fill="#F18908" d="M293.636,5.112c4.71,0,8.745,1.642,12.104,4.926
			c3.37,3.384,5.056,7.418,5.056,12.103c0,4.698-1.686,8.738-5.056,12.122c-3.359,3.272-7.393,4.908-12.104,4.908
			c-4.697,0-8.726-1.636-12.083-4.908c-3.298-3.384-4.945-7.424-4.945-12.122c0-4.685,1.647-8.719,4.945-12.103
			C284.911,6.754,288.939,5.112,293.636,5.112z"/>
	</g>
</g>
</svg>
